<svg version="1.1" id="Layer_1" xmlns="http://www.w3.org/2000/svg" xmlns:xlink="http://www.w3.org/1999/xlink" x="0px" y="0px"
	 width="100%" viewBox="0 0 249 75" enable-background="new 0 0 249 75" xml:space="preserve">
<path fill="#000000" opacity="1.000000" stroke="none" 
	d="
M168.000000,76.000000 
	C113.333351,76.000000 59.166592,75.958870 5.000297,76.097260 
	C1.575292,76.106003 0.869053,75.428772 0.898706,71.999176 
	C1.094671,49.334213 1.046415,26.666502 0.934319,4.000396 
	C0.921950,1.499365 1.500539,0.934778 3.999986,0.937131 
	C84.999886,1.013382 165.999893,1.013371 246.999786,0.937172 
	C249.498703,0.934821 250.077835,1.498637 250.065689,4.000171 
	C249.954208,26.999624 249.954239,50.000061 250.065613,72.999512 
	C250.077728,75.500259 249.501099,76.075378 246.999908,76.065269 
	C220.833618,75.959503 194.666718,76.000000 168.000000,76.000000 
z"/>
<path fill="#1B1B12" opacity="1.000000" stroke="none" 
	d="
M26.100109,65.022186 
	C8.413542,55.039333 3.899164,36.344074 15.136486,20.857485 
	C24.814457,7.519898 46.842690,5.135876 59.947479,15.442768 
	C74.713264,27.056026 73.952492,47.817478 63.036369,59.214882 
	C54.442993,68.187126 38.876236,70.851303 26.100109,65.022186 
z"/>
<path fill="#161717" opacity="1.000000" stroke="none" 
	d="
M134.000732,43.952168 
	C134.010391,38.966015 133.995300,34.471584 134.039459,29.977732 
	C134.064865,27.391132 134.269409,24.753529 137.552368,24.260302 
	C140.775192,23.776106 144.042847,23.682289 145.632019,27.401976 
	C147.069183,30.765850 148.329117,34.205147 149.692566,37.600994 
	C150.053528,38.499985 150.203094,39.798195 151.333313,39.896500 
	C152.883743,40.031357 152.940430,38.460262 153.346909,37.462013 
	C154.476135,34.688908 155.606689,31.908731 156.550110,29.069340 
	C157.963531,24.815390 160.951462,23.508499 165.108566,24.170263 
	C169.335541,24.843151 168.936432,28.166700 168.968643,31.128481 
	C169.031982,36.953598 168.996155,42.780006 168.972778,48.605766 
	C168.960037,51.777336 168.693298,54.860661 164.383240,54.806438 
	C160.410004,54.756454 160.122879,51.903378 159.987411,48.888542 
	C159.923950,47.476791 160.442215,45.929199 159.283249,44.543129 
	C156.120148,47.611622 157.972488,54.804836 151.422119,54.695992 
	C145.123825,54.591335 146.748581,47.888474 143.657181,44.358501 
	C142.617188,46.297329 143.078247,48.247726 142.961075,50.045490 
	C142.771790,52.949238 141.646042,54.842480 138.451706,54.820946 
	C135.220703,54.799168 134.145279,52.795467 134.072113,49.936024 
	C134.025314,48.105984 134.023041,46.274799 134.000732,43.952168 
z"/>
<path fill="#161717" opacity="1.000000" stroke="none" 
	d="
M217.957672,54.215012 
	C204.067566,56.652912 202.998489,55.793449 203.002670,42.575729 
	C203.004044,38.244896 203.068817,33.913746 203.032593,29.583342 
	C203.001694,25.891064 204.673874,23.927809 208.450668,24.057880 
	C211.273636,24.155102 214.135605,24.099106 216.906265,24.557858 
	C226.218964,26.099813 230.442795,30.730097 230.782928,39.418556 
	C231.057480,46.431812 226.511032,51.816952 217.957672,54.215012 
z"/>
<path fill="#161717" opacity="1.000000" stroke="none" 
	d="
M98.097527,29.218351 
	C90.600151,39.105263 90.713043,39.024563 97.037552,47.871998 
	C98.350624,49.708874 102.003647,51.286221 99.605644,54.413734 
	C98.250633,56.180973 91.446869,54.706070 89.487015,52.552708 
	C87.609032,50.489296 86.709351,47.638947 84.283508,45.913280 
	C82.380295,47.037567 83.129158,48.907036 82.936584,50.406773 
	C82.551613,53.404827 80.975471,54.844494 77.980896,54.834705 
	C74.955582,54.824814 73.216499,53.300343 73.172531,50.315365 
	C73.067299,43.171383 73.073151,36.024399 73.146957,28.879795 
	C73.177170,25.955387 74.708519,24.243294 77.785225,24.166737 
	C81.034386,24.085888 82.704323,25.648878 82.950790,28.894110 
	C83.047440,30.166609 82.689240,31.574734 83.931885,32.914272 
	C86.197182,31.709249 87.184769,29.312202 88.637367,27.440010 
	C90.432915,25.125814 92.594330,24.069229 95.464691,24.041645 
	C99.417046,24.003668 101.019760,25.189592 98.097527,29.218351 
z"/>
<path fill="#161717" opacity="1.000000" stroke="none" 
	d="
M189.969849,38.675983 
	C190.030624,34.898594 189.997360,31.575018 190.156113,28.260641 
	C190.290634,25.451880 191.925949,24.096226 194.738052,24.185745 
	C197.356888,24.269112 198.792740,25.730778 198.831985,28.242496 
	C198.917572,33.716469 199.163956,39.223217 198.696747,44.660912 
	C198.200012,50.442547 192.140900,54.866619 185.761002,54.789665 
	C179.227890,54.710869 173.878555,50.770702 173.324829,44.841152 
	C172.817612,39.409496 173.080643,33.898407 173.145309,28.423988 
	C173.177963,25.659315 174.724976,24.149818 177.574829,24.178402 
	C180.464020,24.207376 181.794312,25.852787 181.881454,28.573223 
	C181.993088,32.057117 181.893661,35.549404 182.064789,39.029236 
	C182.200195,41.782810 181.876373,45.373451 185.870956,45.383957 
	C189.686584,45.393993 189.759933,42.004124 189.969849,38.675983 
z"/>
<path fill="#161717" opacity="1.000000" stroke="none" 
	d="
M104.173721,44.365730 
	C104.101608,39.101357 104.053696,34.270317 104.058113,29.439322 
	C104.060867,26.423914 105.018692,24.136938 108.582031,24.183647 
	C112.186371,24.230888 112.912987,26.658102 112.957497,29.604635 
	C113.012840,33.269341 112.973061,36.938374 113.146324,40.597389 
	C113.261436,43.028297 113.844681,45.539333 116.966995,45.438015 
	C119.907784,45.342587 120.738281,42.991280 120.848640,40.502323 
	C121.018311,36.676006 120.986320,32.841129 121.073364,29.010645 
	C121.138947,26.124374 122.293503,24.172731 125.510201,24.177071 
	C128.734253,24.181421 129.888687,26.154297 129.919342,29.031952 
	C129.965454,33.363148 130.083084,37.701374 129.902634,42.025444 
	C129.599976,49.278347 125.225815,53.936264 118.267807,54.719223 
	C111.372780,55.495090 106.401596,51.984585 104.173721,44.365730 
z"/>
<path fill="#161717" opacity="1.000000" stroke="none" 
	d="
M239.518082,54.485638 
	C235.766022,54.656590 233.017288,53.637985 233.573090,49.648792 
	C233.991852,46.643139 236.510757,45.946507 239.241119,46.433178 
	C241.008469,46.748199 242.198914,47.895267 242.512909,49.686199 
	C242.903320,51.913033 241.958878,53.500584 239.518082,54.485638 
z"/>
<path fill="#000000" opacity="1.000000" stroke="none" 
	d="
M26.999851,33.028404 
	C27.181547,28.814348 26.577396,25.026527 27.696949,20.714706 
	C29.845203,26.477184 29.863550,50.350903 26.999847,55.620636 
	C26.999847,48.254478 26.999847,40.888325 26.999851,33.028404 
z"/>
<path fill="#000000" opacity="1.000000" stroke="none" 
	d="
M52.102455,56.670280 
	C51.395283,56.332161 50.824162,55.965694 51.306160,55.280197 
	C51.420097,55.118164 52.191154,55.192974 52.454063,55.409172 
	C52.954865,55.821003 53.204014,56.396687 52.102455,56.670280 
z"/>
<path fill="#000000" opacity="1.000000" stroke="none" 
	d="
M32.940605,40.400612 
	C32.766308,40.655785 32.555424,40.793743 32.344540,40.931702 
	C32.274490,40.683475 32.204441,40.435253 32.134388,40.187027 
	C32.390934,40.219151 32.647480,40.251278 32.940605,40.400612 
z"/>
<path fill="#000000" opacity="1.000000" stroke="none" 
	d="
M37.615997,44.067619 
	C37.759567,44.366852 37.787270,44.624031 37.814972,44.881214 
	C37.568546,44.802933 37.322121,44.724655 37.075699,44.646378 
	C37.217175,44.439442 37.358650,44.232506 37.615997,44.067619 
z"/>
<path fill="#000000" opacity="1.000000" stroke="none" 
	d="
M41.939587,47.398972 
	C41.765320,47.654053 41.554497,47.791992 41.343670,47.929935 
	C41.273682,47.681877 41.203693,47.433815 41.133705,47.185757 
	C41.390144,47.217785 41.646587,47.249809 41.939587,47.398972 
z"/>
<path fill="#000000" opacity="1.000000" stroke="none" 
	d="
M46.940437,51.400841 
	C46.766159,51.655979 46.555294,51.793926 46.344429,51.931873 
	C46.274376,51.683666 46.204319,51.435463 46.134262,51.187256 
	C46.390793,51.219383 46.647324,51.251514 46.940437,51.400841 
z"/>
<path fill="#000000" opacity="1.000000" stroke="none" 
	d="
M40.014748,28.885502 
	C40.067364,28.889103 39.999683,29.136761 39.999683,29.136761 
	C39.999683,29.136761 39.962135,28.881901 40.014748,28.885502 
z"/>
<path fill="#000000" opacity="1.000000" stroke="none" 
	d="
M35.935677,31.910286 
	C35.975281,31.876696 36.101063,32.101357 36.101063,32.101357 
	C36.101063,32.101357 35.896072,31.943876 35.935677,31.910286 
z"/>
<path fill="#000000" opacity="1.000000" stroke="none" 
	d="
M42.936188,26.907745 
	C42.975815,26.874115 43.101757,27.098928 43.101757,27.098928 
	C43.101757,27.098928 42.896564,26.941376 42.936188,26.907745 
z"/>
<path fill="#000000" opacity="1.000000" stroke="none" 
	d="
M32.886108,33.985054 
	C32.889835,33.932457 33.137398,34.000587 33.137398,34.000587 
	C33.137398,34.000587 32.882378,34.037655 32.886108,33.985054 
z"/>
<path fill="#000000" opacity="1.000000" stroke="none" 
	d="
M46.063744,25.092083 
	C46.024117,25.125711 45.898170,24.900902 45.898170,24.900902 
	C45.898170,24.900902 46.103367,25.058453 46.063744,25.092083 
z"/>
<path fill="#000000" opacity="1.000000" stroke="none" 
	d="
M52.831528,20.137123 
	C52.678761,20.681524 52.635765,20.668911 52.831528,20.137123 
z"/>
<path fill="#000000" opacity="1.000000" stroke="none" 
	d="
M49.489983,22.596069 
	C49.449242,22.581512 49.569653,22.409716 49.569653,22.409716 
	C49.569653,22.409716 49.530724,22.610624 49.489983,22.596069 
z"/>
<path fill="#000000" opacity="1.000000" stroke="none" 
	d="
M215.588226,32.660393 
	C219.598480,33.587410 221.044632,36.219955 221.072021,39.661163 
	C221.095047,42.556339 219.647202,44.712036 216.827881,45.738270 
	C215.571060,46.195751 214.273132,46.553513 213.099350,45.484783 
	C210.657043,43.261028 212.137405,34.352547 215.588226,32.660393 
z"/>
</svg>